<mxfile host="app.diagrams.net" modified="2023-02-28T10:05:21.187Z" agent="5.0 (Windows)" etag="xz4YraMYTRQUmDZPZRUe" version="20.8.23" type="github">
  <diagram id="C5RBs43oDa-KdzZeNtuy" name="Page-1">
    <mxGraphModel dx="2440" dy="1344" grid="1" gridSize="10" guides="1" tooltips="1" connect="1" arrows="1" fold="1" page="1" pageScale="1" pageWidth="827" pageHeight="1169" math="0" shadow="0">
      <root>
        <mxCell id="WIyWlLk6GJQsqaUBKTNV-0" />
        <mxCell id="WIyWlLk6GJQsqaUBKTNV-1" parent="WIyWlLk6GJQsqaUBKTNV-0" />
        <mxCell id="4fPn2dJ94Awd5dNHBFq_-68" style="edgeStyle=orthogonalEdgeStyle;shape=connector;rounded=0;orthogonalLoop=1;jettySize=auto;html=1;exitX=0.5;exitY=1;exitDx=0;exitDy=0;entryX=0.175;entryY=0.75;entryDx=0;entryDy=0;entryPerimeter=0;shadow=0;labelBackgroundColor=none;strokeColor=default;strokeWidth=1;fontFamily=Helvetica;fontSize=11;fontColor=default;endArrow=block;endFill=0;endSize=8;" parent="WIyWlLk6GJQsqaUBKTNV-1" source="WIyWlLk6GJQsqaUBKTNV-3" target="4fPn2dJ94Awd5dNHBFq_-1" edge="1">
          <mxGeometry relative="1" as="geometry" />
        </mxCell>
        <mxCell id="WIyWlLk6GJQsqaUBKTNV-3" value="pick up handset" style="rounded=1;whiteSpace=wrap;html=1;fontSize=12;glass=0;strokeWidth=1;shadow=0;" parent="WIyWlLk6GJQsqaUBKTNV-1" vertex="1">
          <mxGeometry x="122" y="150" width="120" height="40" as="geometry" />
        </mxCell>
        <mxCell id="4fPn2dJ94Awd5dNHBFq_-0" value="&lt;div&gt;switch on phone circuits&lt;/div&gt;" style="rounded=1;whiteSpace=wrap;html=1;fillColor=#dae8fc;strokeColor=#6c8ebf;" parent="WIyWlLk6GJQsqaUBKTNV-1" vertex="1">
          <mxGeometry x="198" y="320" width="120" height="30" as="geometry" />
        </mxCell>
        <mxCell id="4fPn2dJ94Awd5dNHBFq_-1" value="&lt;div&gt;OR&lt;/div&gt;" style="shape=xor;whiteSpace=wrap;html=1;rotation=90;fillColor=#dae8fc;strokeColor=#6c8ebf;" parent="WIyWlLk6GJQsqaUBKTNV-1" vertex="1">
          <mxGeometry x="228" y="220" width="60" height="80" as="geometry" />
        </mxCell>
        <mxCell id="4fPn2dJ94Awd5dNHBFq_-2" value="speak general help message" style="rounded=1;whiteSpace=wrap;html=1;fillColor=#dae8fc;strokeColor=#6c8ebf;" parent="WIyWlLk6GJQsqaUBKTNV-1" vertex="1">
          <mxGeometry x="197" y="620" width="120" height="40" as="geometry" />
        </mxCell>
        <mxCell id="4fPn2dJ94Awd5dNHBFq_-69" style="edgeStyle=orthogonalEdgeStyle;shape=connector;rounded=0;orthogonalLoop=1;jettySize=auto;html=1;exitX=0.5;exitY=1;exitDx=0;exitDy=0;entryX=0.175;entryY=0.25;entryDx=0;entryDy=0;entryPerimeter=0;shadow=0;labelBackgroundColor=none;strokeColor=default;strokeWidth=1;fontFamily=Helvetica;fontSize=11;fontColor=default;endArrow=block;endFill=0;endSize=8;" parent="WIyWlLk6GJQsqaUBKTNV-1" source="4fPn2dJ94Awd5dNHBFq_-3" target="4fPn2dJ94Awd5dNHBFq_-1" edge="1">
          <mxGeometry relative="1" as="geometry" />
        </mxCell>
        <mxCell id="4fPn2dJ94Awd5dNHBFq_-3" value="proximity detected" style="rounded=1;whiteSpace=wrap;html=1;fillColor=#dae8fc;strokeColor=#6c8ebf;" parent="WIyWlLk6GJQsqaUBKTNV-1" vertex="1">
          <mxGeometry x="278" y="150" width="120" height="40" as="geometry" />
        </mxCell>
        <mxCell id="4fPn2dJ94Awd5dNHBFq_-4" value="" style="rounded=0;html=1;jettySize=auto;orthogonalLoop=1;fontSize=11;endArrow=block;endFill=0;endSize=8;strokeWidth=1;shadow=0;labelBackgroundColor=none;edgeStyle=orthogonalEdgeStyle;entryX=0.175;entryY=0.75;entryDx=0;entryDy=0;entryPerimeter=0;" parent="WIyWlLk6GJQsqaUBKTNV-1" edge="1">
          <mxGeometry width="50" height="50" relative="1" as="geometry">
            <mxPoint x="257.79999999999995" y="290" as="sourcePoint" />
            <mxPoint x="257.79999999999995" y="320" as="targetPoint" />
            <Array as="points">
              <mxPoint x="258.09" y="310" />
              <mxPoint x="258.09" y="310" />
            </Array>
          </mxGeometry>
        </mxCell>
        <mxCell id="4fPn2dJ94Awd5dNHBFq_-9" value="" style="rounded=0;html=1;jettySize=auto;orthogonalLoop=1;fontSize=11;endArrow=block;endFill=0;endSize=8;strokeWidth=1;shadow=0;labelBackgroundColor=none;edgeStyle=orthogonalEdgeStyle;exitX=0.5;exitY=1;exitDx=0;exitDy=0;" parent="WIyWlLk6GJQsqaUBKTNV-1" source="4fPn2dJ94Awd5dNHBFq_-0" edge="1">
          <mxGeometry width="50" height="50" relative="1" as="geometry">
            <mxPoint x="288" y="490" as="sourcePoint" />
            <mxPoint x="260" y="380" as="targetPoint" />
            <Array as="points">
              <mxPoint x="260" y="350" />
            </Array>
          </mxGeometry>
        </mxCell>
        <mxCell id="4fPn2dJ94Awd5dNHBFq_-53" value="" style="edgeStyle=orthogonalEdgeStyle;rounded=0;orthogonalLoop=1;jettySize=auto;html=1;exitX=0.5;exitY=1;exitDx=0;exitDy=0;labelBackgroundColor=none;endArrow=block;endFill=0;endSize=8;strokeWidth=1;shadow=0;" parent="WIyWlLk6GJQsqaUBKTNV-1" source="4fPn2dJ94Awd5dNHBFq_-11" target="4fPn2dJ94Awd5dNHBFq_-52" edge="1">
          <mxGeometry relative="1" as="geometry">
            <Array as="points">
              <mxPoint x="258" y="420" />
              <mxPoint x="258" y="420" />
            </Array>
          </mxGeometry>
        </mxCell>
        <mxCell id="4fPn2dJ94Awd5dNHBFq_-11" value="open the landline" style="rounded=1;whiteSpace=wrap;html=1;" parent="WIyWlLk6GJQsqaUBKTNV-1" vertex="1">
          <mxGeometry x="198" y="380" width="120" height="30" as="geometry" />
        </mxCell>
        <mxCell id="4fPn2dJ94Awd5dNHBFq_-61" style="edgeStyle=orthogonalEdgeStyle;shape=connector;rounded=0;orthogonalLoop=1;jettySize=auto;html=1;exitX=0.5;exitY=1;exitDx=0;exitDy=0;entryX=0.5;entryY=0;entryDx=0;entryDy=0;shadow=0;labelBackgroundColor=none;strokeColor=default;strokeWidth=1;fontFamily=Helvetica;fontSize=11;fontColor=default;endArrow=block;endFill=0;endSize=8;" parent="WIyWlLk6GJQsqaUBKTNV-1" source="4fPn2dJ94Awd5dNHBFq_-12" target="4fPn2dJ94Awd5dNHBFq_-2" edge="1">
          <mxGeometry relative="1" as="geometry" />
        </mxCell>
        <mxCell id="4fPn2dJ94Awd5dNHBFq_-110" style="edgeStyle=orthogonalEdgeStyle;shape=connector;rounded=0;orthogonalLoop=1;jettySize=auto;html=1;exitX=0;exitY=0.5;exitDx=0;exitDy=0;entryX=0.095;entryY=-0.001;entryDx=0;entryDy=0;entryPerimeter=0;shadow=0;labelBackgroundColor=default;strokeColor=default;strokeWidth=1;fontFamily=Helvetica;fontSize=11;fontColor=default;endArrow=block;endFill=0;endSize=8;" parent="WIyWlLk6GJQsqaUBKTNV-1" source="4fPn2dJ94Awd5dNHBFq_-12" target="4fPn2dJ94Awd5dNHBFq_-92" edge="1">
          <mxGeometry relative="1" as="geometry">
            <Array as="points">
              <mxPoint x="130" y="570" />
            </Array>
          </mxGeometry>
        </mxCell>
        <mxCell id="DfglNO9iFc2wlAfMeSWZ-5" style="edgeStyle=orthogonalEdgeStyle;rounded=0;orthogonalLoop=1;jettySize=auto;html=1;entryX=0.175;entryY=0.75;entryDx=0;entryDy=0;entryPerimeter=0;fontColor=default;labelBackgroundColor=none;endArrow=block;shadow=0;strokeWidth=1;endFill=0;endSize=8;" edge="1" parent="WIyWlLk6GJQsqaUBKTNV-1" source="4fPn2dJ94Awd5dNHBFq_-12" target="4fPn2dJ94Awd5dNHBFq_-56">
          <mxGeometry relative="1" as="geometry">
            <Array as="points">
              <mxPoint x="398" y="570" />
              <mxPoint x="398" y="493" />
            </Array>
          </mxGeometry>
        </mxCell>
        <mxCell id="4fPn2dJ94Awd5dNHBFq_-12" value="turn on LEDs of memory buttons&amp;nbsp;" style="rounded=1;whiteSpace=wrap;html=1;" parent="WIyWlLk6GJQsqaUBKTNV-1" vertex="1">
          <mxGeometry x="197" y="550" width="120" height="40" as="geometry" />
        </mxCell>
        <mxCell id="4fPn2dJ94Awd5dNHBFq_-17" value="&lt;div&gt;PSoC4 tasks&lt;/div&gt;" style="rounded=0;whiteSpace=wrap;html=1;fillColor=#dae8fc;strokeColor=#6c8ebf;" parent="WIyWlLk6GJQsqaUBKTNV-1" vertex="1">
          <mxGeometry x="618" y="120" width="120" height="20" as="geometry" />
        </mxCell>
        <mxCell id="4fPn2dJ94Awd5dNHBFq_-18" value="Phone tasks" style="rounded=0;whiteSpace=wrap;html=1;" parent="WIyWlLk6GJQsqaUBKTNV-1" vertex="1">
          <mxGeometry x="618" y="150" width="120" height="20" as="geometry" />
        </mxCell>
        <mxCell id="4fPn2dJ94Awd5dNHBFq_-28" value="" style="rounded=0;html=1;jettySize=auto;orthogonalLoop=1;fontSize=11;endArrow=block;endFill=0;endSize=8;strokeWidth=1;shadow=0;labelBackgroundColor=none;edgeStyle=orthogonalEdgeStyle;entryX=0.5;entryY=0;entryDx=0;entryDy=0;exitX=1;exitY=0.5;exitDx=0;exitDy=0;" parent="WIyWlLk6GJQsqaUBKTNV-1" source="4fPn2dJ94Awd5dNHBFq_-33" target="4fPn2dJ94Awd5dNHBFq_-24" edge="1">
          <mxGeometry relative="1" as="geometry" />
        </mxCell>
        <mxCell id="4fPn2dJ94Awd5dNHBFq_-34" value="&lt;div&gt;No&lt;/div&gt;" style="edgeLabel;html=1;align=center;verticalAlign=middle;resizable=0;points=[];" parent="4fPn2dJ94Awd5dNHBFq_-28" vertex="1" connectable="0">
          <mxGeometry x="-0.52" relative="1" as="geometry">
            <mxPoint as="offset" />
          </mxGeometry>
        </mxCell>
        <mxCell id="4fPn2dJ94Awd5dNHBFq_-44" value="" style="rounded=0;html=1;jettySize=auto;orthogonalLoop=1;fontSize=11;endArrow=block;endFill=0;endSize=8;strokeWidth=1;shadow=0;labelBackgroundColor=none;edgeStyle=orthogonalEdgeStyle;entryX=0.875;entryY=0;entryDx=0;entryDy=0;entryPerimeter=0;" parent="WIyWlLk6GJQsqaUBKTNV-1" source="4fPn2dJ94Awd5dNHBFq_-22" target="4fPn2dJ94Awd5dNHBFq_-41" edge="1">
          <mxGeometry relative="1" as="geometry" />
        </mxCell>
        <mxCell id="4fPn2dJ94Awd5dNHBFq_-22" value="wait 30s" style="rounded=1;whiteSpace=wrap;html=1;fillColor=#dae8fc;strokeColor=#6c8ebf;" parent="WIyWlLk6GJQsqaUBKTNV-1" vertex="1">
          <mxGeometry x="633" y="760" width="70" height="30" as="geometry" />
        </mxCell>
        <mxCell id="4fPn2dJ94Awd5dNHBFq_-23" value="&lt;div&gt;Not implemented yet.&lt;br&gt;&lt;/div&gt;&lt;div&gt;&lt;font color=&quot;#B5B5B5&quot;&gt;hang up: 380-490Hz&lt;/font&gt;&lt;/div&gt;&lt;div&gt;&lt;font color=&quot;#B5B5B5&quot;&gt;Intervall: on:250ms&lt;/font&gt;&lt;/div&gt;&lt;div&gt;&lt;font color=&quot;#B5B5B5&quot;&gt;off:250ms&lt;/font&gt;&lt;/div&gt;&lt;div&gt;&lt;font color=&quot;#B5B5B5&quot;&gt;Busy:380-490Hz&lt;/font&gt;&lt;div&gt;&lt;font color=&quot;#B5B5B5&quot;&gt;Intervall: on:480ms&lt;/font&gt;&lt;/div&gt;&lt;div&gt;&lt;font color=&quot;#B5B5B5&quot;&gt;off:480ms&lt;/font&gt;&lt;/div&gt; &lt;/div&gt;" style="shape=note;whiteSpace=wrap;html=1;backgroundOutline=1;darkOpacity=0.05;fillColor=#f5f5f5;fontColor=#333333;strokeColor=#666666;" parent="WIyWlLk6GJQsqaUBKTNV-1" vertex="1">
          <mxGeometry x="651.5" y="470" width="133" height="142.5" as="geometry" />
        </mxCell>
        <mxCell id="4fPn2dJ94Awd5dNHBFq_-43" style="rounded=0;html=1;jettySize=auto;orthogonalLoop=1;fontSize=11;endArrow=block;endFill=0;endSize=8;strokeWidth=1;shadow=0;labelBackgroundColor=none;edgeStyle=orthogonalEdgeStyle;" parent="WIyWlLk6GJQsqaUBKTNV-1" source="4fPn2dJ94Awd5dNHBFq_-24" target="4fPn2dJ94Awd5dNHBFq_-22" edge="1">
          <mxGeometry relative="1" as="geometry">
            <Array as="points">
              <mxPoint x="668" y="740" />
              <mxPoint x="668" y="740" />
            </Array>
          </mxGeometry>
        </mxCell>
        <mxCell id="4fPn2dJ94Awd5dNHBFq_-45" value="Yes" style="edgeLabel;html=1;align=center;verticalAlign=middle;resizable=0;points=[];" parent="4fPn2dJ94Awd5dNHBFq_-43" vertex="1" connectable="0">
          <mxGeometry x="-0.3013" y="1" relative="1" as="geometry">
            <mxPoint as="offset" />
          </mxGeometry>
        </mxCell>
        <mxCell id="4fPn2dJ94Awd5dNHBFq_-24" value="&lt;div&gt;signal&lt;br&gt;&lt;/div&gt;&lt;div&gt;free | hang up| busy?&lt;/div&gt;" style="rhombus;whiteSpace=wrap;html=1;fillColor=#f5f5f5;strokeColor=#666666;fontColor=#B5B5B5;" parent="WIyWlLk6GJQsqaUBKTNV-1" vertex="1">
          <mxGeometry x="583" y="647.5" width="170" height="75" as="geometry" />
        </mxCell>
        <mxCell id="4fPn2dJ94Awd5dNHBFq_-42" style="rounded=0;html=1;jettySize=auto;orthogonalLoop=1;fontSize=11;endArrow=block;endFill=0;endSize=8;strokeWidth=1;shadow=0;labelBackgroundColor=none;edgeStyle=orthogonalEdgeStyle;entryX=0.13;entryY=0.027;entryDx=0;entryDy=0;entryPerimeter=0;" parent="WIyWlLk6GJQsqaUBKTNV-1" source="4fPn2dJ94Awd5dNHBFq_-33" target="4fPn2dJ94Awd5dNHBFq_-41" edge="1">
          <mxGeometry relative="1" as="geometry">
            <mxPoint x="548" y="770" as="targetPoint" />
          </mxGeometry>
        </mxCell>
        <mxCell id="4fPn2dJ94Awd5dNHBFq_-48" value="Yes" style="edgeLabel;html=1;align=center;verticalAlign=middle;resizable=0;points=[];" parent="4fPn2dJ94Awd5dNHBFq_-42" vertex="1" connectable="0">
          <mxGeometry x="-0.8187" y="-1" relative="1" as="geometry">
            <mxPoint as="offset" />
          </mxGeometry>
        </mxCell>
        <mxCell id="4fPn2dJ94Awd5dNHBFq_-33" value="hang up phone?" style="rhombus;whiteSpace=wrap;html=1;" parent="WIyWlLk6GJQsqaUBKTNV-1" vertex="1">
          <mxGeometry x="508" y="585" width="80" height="80" as="geometry" />
        </mxCell>
        <mxCell id="4fPn2dJ94Awd5dNHBFq_-36" value="" style="rounded=0;html=1;jettySize=auto;orthogonalLoop=1;fontSize=11;endArrow=block;endFill=0;endSize=8;strokeWidth=1;shadow=0;labelBackgroundColor=none;edgeStyle=orthogonalEdgeStyle;entryX=0.495;entryY=0.035;entryDx=0;entryDy=0;entryPerimeter=0;exitX=1;exitY=0.5;exitDx=0;exitDy=0;exitPerimeter=0;" parent="WIyWlLk6GJQsqaUBKTNV-1" source="4fPn2dJ94Awd5dNHBFq_-56" target="4fPn2dJ94Awd5dNHBFq_-33" edge="1">
          <mxGeometry relative="1" as="geometry" />
        </mxCell>
        <mxCell id="DfglNO9iFc2wlAfMeSWZ-3" style="edgeStyle=orthogonalEdgeStyle;rounded=0;orthogonalLoop=1;jettySize=auto;html=1;entryX=0.175;entryY=0.25;entryDx=0;entryDy=0;entryPerimeter=0;fontColor=default;labelBackgroundColor=none;endArrow=block;shadow=0;strokeWidth=1;endFill=0;endSize=8;" edge="1" parent="WIyWlLk6GJQsqaUBKTNV-1" source="4fPn2dJ94Awd5dNHBFq_-35" target="4fPn2dJ94Awd5dNHBFq_-56">
          <mxGeometry relative="1" as="geometry">
            <Array as="points">
              <mxPoint x="398" y="453" />
              <mxPoint x="459" y="453" />
            </Array>
          </mxGeometry>
        </mxCell>
        <mxCell id="4fPn2dJ94Awd5dNHBFq_-35" value="" style="shape=umlActor;verticalLabelPosition=bottom;verticalAlign=top;html=1;outlineConnect=0;" parent="WIyWlLk6GJQsqaUBKTNV-1" vertex="1">
          <mxGeometry x="378" y="340" width="30" height="60" as="geometry" />
        </mxCell>
        <mxCell id="4fPn2dJ94Awd5dNHBFq_-38" style="edgeStyle=orthogonalEdgeStyle;rounded=0;orthogonalLoop=1;jettySize=auto;html=1;exitX=0;exitY=0.3333333333333333;exitDx=0;exitDy=0;exitPerimeter=0;" parent="WIyWlLk6GJQsqaUBKTNV-1" source="4fPn2dJ94Awd5dNHBFq_-37" target="WIyWlLk6GJQsqaUBKTNV-3" edge="1">
          <mxGeometry relative="1" as="geometry">
            <Array as="points">
              <mxPoint x="178" y="70" />
            </Array>
          </mxGeometry>
        </mxCell>
        <mxCell id="4fPn2dJ94Awd5dNHBFq_-39" style="edgeStyle=orthogonalEdgeStyle;rounded=0;orthogonalLoop=1;jettySize=auto;html=1;exitX=1;exitY=0.3333333333333333;exitDx=0;exitDy=0;exitPerimeter=0;entryX=-0.002;entryY=0.641;entryDx=0;entryDy=0;entryPerimeter=0;" parent="WIyWlLk6GJQsqaUBKTNV-1" source="4fPn2dJ94Awd5dNHBFq_-37" target="4fPn2dJ94Awd5dNHBFq_-115" edge="1">
          <mxGeometry relative="1" as="geometry">
            <mxPoint x="340" y="138" as="targetPoint" />
          </mxGeometry>
        </mxCell>
        <mxCell id="4fPn2dJ94Awd5dNHBFq_-37" value="" style="shape=umlActor;verticalLabelPosition=bottom;verticalAlign=top;html=1;outlineConnect=0;" parent="WIyWlLk6GJQsqaUBKTNV-1" vertex="1">
          <mxGeometry x="242" y="50" width="30" height="60" as="geometry" />
        </mxCell>
        <mxCell id="4fPn2dJ94Awd5dNHBFq_-62" style="edgeStyle=orthogonalEdgeStyle;shape=connector;rounded=0;orthogonalLoop=1;jettySize=auto;html=1;shadow=0;labelBackgroundColor=none;strokeColor=default;strokeWidth=1;fontFamily=Helvetica;fontSize=11;fontColor=default;endArrow=block;endFill=0;endSize=8;" parent="WIyWlLk6GJQsqaUBKTNV-1" source="4fPn2dJ94Awd5dNHBFq_-41" target="4fPn2dJ94Awd5dNHBFq_-46" edge="1">
          <mxGeometry relative="1" as="geometry" />
        </mxCell>
        <mxCell id="4fPn2dJ94Awd5dNHBFq_-41" value="switch off phone circuit" style="rounded=1;whiteSpace=wrap;html=1;fillColor=#dae8fc;strokeColor=#6c8ebf;" parent="WIyWlLk6GJQsqaUBKTNV-1" vertex="1">
          <mxGeometry x="528" y="820" width="160" height="30" as="geometry" />
        </mxCell>
        <mxCell id="4fPn2dJ94Awd5dNHBFq_-113" style="edgeStyle=orthogonalEdgeStyle;shape=connector;rounded=0;orthogonalLoop=1;jettySize=auto;html=1;exitX=0.5;exitY=1;exitDx=0;exitDy=0;entryX=0.5;entryY=0;entryDx=0;entryDy=0;shadow=0;labelBackgroundColor=default;strokeColor=default;strokeWidth=1;fontFamily=Helvetica;fontSize=11;fontColor=default;endArrow=block;endFill=0;endSize=8;" parent="WIyWlLk6GJQsqaUBKTNV-1" source="4fPn2dJ94Awd5dNHBFq_-46" target="4fPn2dJ94Awd5dNHBFq_-112" edge="1">
          <mxGeometry relative="1" as="geometry" />
        </mxCell>
        <mxCell id="4fPn2dJ94Awd5dNHBFq_-46" value="&lt;div&gt;landline closed, &lt;br&gt;&lt;/div&gt;&lt;div&gt;LEDs of memory buttons are off.&lt;/div&gt;" style="rounded=1;whiteSpace=wrap;html=1;" parent="WIyWlLk6GJQsqaUBKTNV-1" vertex="1">
          <mxGeometry x="548" y="880" width="120" height="55" as="geometry" />
        </mxCell>
        <mxCell id="4fPn2dJ94Awd5dNHBFq_-51" value="" style="endArrow=none;dashed=1;html=1;rounded=0;exitX=0.641;exitY=0.167;exitDx=0;exitDy=0;exitPerimeter=0;" parent="WIyWlLk6GJQsqaUBKTNV-1" source="4fPn2dJ94Awd5dNHBFq_-24" target="4fPn2dJ94Awd5dNHBFq_-23" edge="1">
          <mxGeometry width="50" height="50" relative="1" as="geometry">
            <mxPoint x="688" y="650" as="sourcePoint" />
            <mxPoint x="698" y="620" as="targetPoint" />
          </mxGeometry>
        </mxCell>
        <mxCell id="4fPn2dJ94Awd5dNHBFq_-58" style="edgeStyle=orthogonalEdgeStyle;shape=connector;rounded=0;orthogonalLoop=1;jettySize=auto;html=1;exitX=1;exitY=0.5;exitDx=0;exitDy=0;entryX=0.25;entryY=0.5;entryDx=0;entryDy=0;entryPerimeter=0;shadow=0;labelBackgroundColor=none;strokeColor=default;strokeWidth=1;fontFamily=Helvetica;fontSize=11;fontColor=default;endArrow=block;endFill=0;endSize=8;" parent="WIyWlLk6GJQsqaUBKTNV-1" source="4fPn2dJ94Awd5dNHBFq_-52" target="4fPn2dJ94Awd5dNHBFq_-56" edge="1">
          <mxGeometry relative="1" as="geometry">
            <Array as="points">
              <mxPoint x="358" y="473" />
              <mxPoint x="358" y="473" />
            </Array>
          </mxGeometry>
        </mxCell>
        <mxCell id="4fPn2dJ94Awd5dNHBFq_-59" value="Yes" style="edgeLabel;html=1;align=center;verticalAlign=middle;resizable=0;points=[];fontSize=11;fontFamily=Helvetica;fontColor=default;" parent="4fPn2dJ94Awd5dNHBFq_-58" vertex="1" connectable="0">
          <mxGeometry x="-0.5543" y="-2" relative="1" as="geometry">
            <mxPoint x="-34" y="-2" as="offset" />
          </mxGeometry>
        </mxCell>
        <mxCell id="4fPn2dJ94Awd5dNHBFq_-60" value="No" style="edgeStyle=orthogonalEdgeStyle;shape=connector;rounded=0;orthogonalLoop=1;jettySize=auto;html=1;exitX=0.5;exitY=1;exitDx=0;exitDy=0;entryX=0.5;entryY=0;entryDx=0;entryDy=0;shadow=0;labelBackgroundColor=default;strokeColor=default;strokeWidth=1;fontFamily=Helvetica;fontSize=11;fontColor=default;endArrow=block;endFill=0;endSize=8;" parent="WIyWlLk6GJQsqaUBKTNV-1" source="4fPn2dJ94Awd5dNHBFq_-52" target="4fPn2dJ94Awd5dNHBFq_-12" edge="1">
          <mxGeometry x="-0.5563" y="1" relative="1" as="geometry">
            <Array as="points">
              <mxPoint x="257" y="512" />
            </Array>
            <mxPoint as="offset" />
          </mxGeometry>
        </mxCell>
        <mxCell id="4fPn2dJ94Awd5dNHBFq_-52" value="&lt;div&gt;incoming&lt;/div&gt;&lt;div&gt;&amp;nbsp;call?&lt;/div&gt;" style="rhombus;whiteSpace=wrap;html=1;" parent="WIyWlLk6GJQsqaUBKTNV-1" vertex="1">
          <mxGeometry x="218" y="432.5" width="80" height="80" as="geometry" />
        </mxCell>
        <mxCell id="4fPn2dJ94Awd5dNHBFq_-54" value="replaces the common handset pick up by a relay&amp;nbsp; " style="shape=note;whiteSpace=wrap;html=1;backgroundOutline=1;darkOpacity=0.05;fontFamily=Helvetica;fontSize=11;fontColor=default;" parent="WIyWlLk6GJQsqaUBKTNV-1" vertex="1">
          <mxGeometry x="28" y="283.5" width="120" height="50" as="geometry" />
        </mxCell>
        <mxCell id="4fPn2dJ94Awd5dNHBFq_-55" value="" style="endArrow=none;dashed=1;html=1;rounded=0;shadow=0;labelBackgroundColor=none;strokeColor=default;strokeWidth=1;fontFamily=Helvetica;fontSize=11;fontColor=default;endSize=8;shape=connector;exitX=0;exitY=0.5;exitDx=0;exitDy=0;entryX=1;entryY=1;entryDx=0;entryDy=0;entryPerimeter=0;" parent="WIyWlLk6GJQsqaUBKTNV-1" source="4fPn2dJ94Awd5dNHBFq_-0" target="4fPn2dJ94Awd5dNHBFq_-54" edge="1">
          <mxGeometry width="50" height="50" relative="1" as="geometry">
            <mxPoint x="128" y="390" as="sourcePoint" />
            <mxPoint x="178" y="340" as="targetPoint" />
          </mxGeometry>
        </mxCell>
        <mxCell id="4fPn2dJ94Awd5dNHBFq_-56" value="&lt;div&gt;OR&lt;/div&gt;" style="shape=xor;whiteSpace=wrap;html=1;rotation=0;fillColor=#dae8fc;strokeColor=#6c8ebf;" parent="WIyWlLk6GJQsqaUBKTNV-1" vertex="1">
          <mxGeometry x="458" y="432.5" width="60" height="80" as="geometry" />
        </mxCell>
        <mxCell id="4fPn2dJ94Awd5dNHBFq_-64" value="To prevent a endless loop after a hang up it must be detected by a rising or falling edge of a switch." style="shape=note;whiteSpace=wrap;html=1;backgroundOutline=1;darkOpacity=0.05;fontFamily=Helvetica;fontSize=11;fontColor=default;" parent="WIyWlLk6GJQsqaUBKTNV-1" vertex="1">
          <mxGeometry x="28" y="50" width="110" height="90" as="geometry" />
        </mxCell>
        <mxCell id="4fPn2dJ94Awd5dNHBFq_-66" value="" style="endArrow=none;dashed=1;html=1;rounded=0;shadow=0;labelBackgroundColor=none;strokeColor=default;strokeWidth=1;fontFamily=Helvetica;fontSize=11;fontColor=default;endSize=8;shape=connector;entryX=0.5;entryY=1;entryDx=0;entryDy=0;entryPerimeter=0;exitX=0;exitY=0.75;exitDx=0;exitDy=0;" parent="WIyWlLk6GJQsqaUBKTNV-1" source="WIyWlLk6GJQsqaUBKTNV-3" target="4fPn2dJ94Awd5dNHBFq_-64" edge="1">
          <mxGeometry width="50" height="50" relative="1" as="geometry">
            <mxPoint x="38" y="200" as="sourcePoint" />
            <mxPoint x="88" y="150" as="targetPoint" />
          </mxGeometry>
        </mxCell>
        <mxCell id="4fPn2dJ94Awd5dNHBFq_-92" value="" style="swimlane;startSize=0;fontFamily=Helvetica;fontSize=11;fontColor=default;" parent="WIyWlLk6GJQsqaUBKTNV-1" vertex="1">
          <mxGeometry x="97" y="680" width="344.5" height="480" as="geometry">
            <mxRectangle x="69" y="680" width="181" height="40" as="alternateBounds" />
          </mxGeometry>
        </mxCell>
        <mxCell id="4fPn2dJ94Awd5dNHBFq_-96" value="CSD Button1 triggered?" style="rhombus;whiteSpace=wrap;html=1;fontFamily=Helvetica;fontSize=11;fillColor=#dae8fc;strokeColor=#6c8ebf;" parent="4fPn2dJ94Awd5dNHBFq_-92" vertex="1">
          <mxGeometry x="62.25" y="195" width="80" height="80" as="geometry" />
        </mxCell>
        <mxCell id="4fPn2dJ94Awd5dNHBFq_-98" value="CSD Button3 triggered?" style="rhombus;whiteSpace=wrap;html=1;fontFamily=Helvetica;fontSize=11;fillColor=#dae8fc;strokeColor=#6c8ebf;" parent="4fPn2dJ94Awd5dNHBFq_-92" vertex="1">
          <mxGeometry x="237.25" y="325" width="80" height="80" as="geometry" />
        </mxCell>
        <mxCell id="4fPn2dJ94Awd5dNHBFq_-99" value="No" style="edgeStyle=orthogonalEdgeStyle;shape=connector;rounded=0;orthogonalLoop=1;jettySize=auto;html=1;exitX=1;exitY=0.5;exitDx=0;exitDy=0;entryX=0.5;entryY=0;entryDx=0;entryDy=0;shadow=0;labelBackgroundColor=default;strokeColor=default;strokeWidth=1;fontFamily=Helvetica;fontSize=11;fontColor=default;endArrow=block;endFill=0;endSize=8;" parent="4fPn2dJ94Awd5dNHBFq_-92" source="4fPn2dJ94Awd5dNHBFq_-101" target="4fPn2dJ94Awd5dNHBFq_-98" edge="1">
          <mxGeometry x="-0.5294" relative="1" as="geometry">
            <mxPoint as="offset" />
          </mxGeometry>
        </mxCell>
        <mxCell id="4fPn2dJ94Awd5dNHBFq_-101" value="CSD Button2 triggered?" style="rhombus;whiteSpace=wrap;html=1;fontFamily=Helvetica;fontSize=11;fillColor=#dae8fc;strokeColor=#6c8ebf;" parent="4fPn2dJ94Awd5dNHBFq_-92" vertex="1">
          <mxGeometry x="147.25" y="255" width="80" height="80" as="geometry" />
        </mxCell>
        <mxCell id="4fPn2dJ94Awd5dNHBFq_-94" value="No" style="edgeStyle=orthogonalEdgeStyle;shape=connector;rounded=0;orthogonalLoop=1;jettySize=auto;html=1;exitX=1;exitY=0.5;exitDx=0;exitDy=0;entryX=0.5;entryY=0;entryDx=0;entryDy=0;shadow=0;labelBackgroundColor=default;strokeColor=default;strokeWidth=1;fontFamily=Helvetica;fontSize=11;fontColor=default;endArrow=block;endFill=0;endSize=8;" parent="4fPn2dJ94Awd5dNHBFq_-92" source="4fPn2dJ94Awd5dNHBFq_-96" target="4fPn2dJ94Awd5dNHBFq_-101" edge="1">
          <mxGeometry x="-0.731" relative="1" as="geometry">
            <mxPoint as="offset" />
          </mxGeometry>
        </mxCell>
        <mxCell id="4fPn2dJ94Awd5dNHBFq_-104" value="" style="shape=umlActor;verticalLabelPosition=bottom;verticalAlign=top;html=1;outlineConnect=0;fontFamily=Helvetica;fontSize=11;fontColor=default;" parent="4fPn2dJ94Awd5dNHBFq_-92" vertex="1">
          <mxGeometry x="87.25" y="15" width="30" height="60" as="geometry" />
        </mxCell>
        <mxCell id="4fPn2dJ94Awd5dNHBFq_-105" style="edgeStyle=orthogonalEdgeStyle;shape=connector;rounded=0;orthogonalLoop=1;jettySize=auto;html=1;entryX=0.5;entryY=0;entryDx=0;entryDy=0;shadow=0;labelBackgroundColor=default;strokeColor=default;strokeWidth=1;fontFamily=Helvetica;fontSize=11;fontColor=default;endArrow=block;endFill=0;endSize=8;" parent="4fPn2dJ94Awd5dNHBFq_-92" source="4fPn2dJ94Awd5dNHBFq_-106" target="4fPn2dJ94Awd5dNHBFq_-96" edge="1">
          <mxGeometry relative="1" as="geometry" />
        </mxCell>
        <mxCell id="4fPn2dJ94Awd5dNHBFq_-106" value="CAPSENSE widget triggered" style="rounded=1;whiteSpace=wrap;html=1;fontFamily=Helvetica;fontSize=11;fillColor=#dae8fc;strokeColor=#6c8ebf;" parent="4fPn2dJ94Awd5dNHBFq_-92" vertex="1">
          <mxGeometry x="27.25" y="115" width="150" height="40" as="geometry" />
        </mxCell>
        <mxCell id="4fPn2dJ94Awd5dNHBFq_-102" value="" style="edgeStyle=orthogonalEdgeStyle;shape=connector;rounded=0;orthogonalLoop=1;jettySize=auto;html=1;shadow=0;labelBackgroundColor=default;strokeColor=default;strokeWidth=1;fontFamily=Helvetica;fontSize=11;fontColor=default;endArrow=block;endFill=0;endSize=8;" parent="4fPn2dJ94Awd5dNHBFq_-92" source="4fPn2dJ94Awd5dNHBFq_-104" target="4fPn2dJ94Awd5dNHBFq_-106" edge="1">
          <mxGeometry relative="1" as="geometry" />
        </mxCell>
        <mxCell id="4fPn2dJ94Awd5dNHBFq_-103" value="" style="edgeStyle=orthogonalEdgeStyle;shape=connector;rounded=0;orthogonalLoop=1;jettySize=auto;html=1;shadow=0;labelBackgroundColor=default;strokeColor=default;strokeWidth=1;fontFamily=Helvetica;fontSize=11;fontColor=default;endArrow=block;endFill=0;endSize=8;" parent="4fPn2dJ94Awd5dNHBFq_-92" source="4fPn2dJ94Awd5dNHBFq_-104" target="4fPn2dJ94Awd5dNHBFq_-106" edge="1">
          <mxGeometry relative="1" as="geometry" />
        </mxCell>
        <mxCell id="4fPn2dJ94Awd5dNHBFq_-107" value="speak help message1" style="rounded=1;whiteSpace=wrap;html=1;fontFamily=Helvetica;fontSize=11;fillColor=#dae8fc;strokeColor=#6c8ebf;" parent="4fPn2dJ94Awd5dNHBFq_-92" vertex="1">
          <mxGeometry x="74.25" y="435" width="56" height="30" as="geometry" />
        </mxCell>
        <mxCell id="4fPn2dJ94Awd5dNHBFq_-95" style="edgeStyle=orthogonalEdgeStyle;shape=connector;rounded=0;orthogonalLoop=1;jettySize=auto;html=1;exitX=0.5;exitY=1;exitDx=0;exitDy=0;shadow=0;labelBackgroundColor=default;strokeColor=default;strokeWidth=1;fontFamily=Helvetica;fontSize=11;fontColor=default;endArrow=block;endFill=0;endSize=8;" parent="4fPn2dJ94Awd5dNHBFq_-92" source="4fPn2dJ94Awd5dNHBFq_-96" target="4fPn2dJ94Awd5dNHBFq_-107" edge="1">
          <mxGeometry relative="1" as="geometry" />
        </mxCell>
        <mxCell id="4fPn2dJ94Awd5dNHBFq_-123" value="Yes" style="edgeLabel;html=1;align=center;verticalAlign=middle;resizable=0;points=[];fontSize=11;fontFamily=Helvetica;fontColor=default;" parent="4fPn2dJ94Awd5dNHBFq_-95" vertex="1" connectable="0">
          <mxGeometry x="-0.7542" y="1" relative="1" as="geometry">
            <mxPoint as="offset" />
          </mxGeometry>
        </mxCell>
        <mxCell id="4fPn2dJ94Awd5dNHBFq_-108" value="speak help message2" style="rounded=1;whiteSpace=wrap;html=1;fontFamily=Helvetica;fontSize=11;fillColor=#dae8fc;strokeColor=#6c8ebf;" parent="4fPn2dJ94Awd5dNHBFq_-92" vertex="1">
          <mxGeometry x="159.25" y="435" width="56" height="30" as="geometry" />
        </mxCell>
        <mxCell id="4fPn2dJ94Awd5dNHBFq_-100" style="edgeStyle=orthogonalEdgeStyle;shape=connector;rounded=0;orthogonalLoop=1;jettySize=auto;html=1;entryX=0.5;entryY=0;entryDx=0;entryDy=0;shadow=0;labelBackgroundColor=default;strokeColor=default;strokeWidth=1;fontFamily=Helvetica;fontSize=11;fontColor=default;endArrow=block;endFill=0;endSize=8;" parent="4fPn2dJ94Awd5dNHBFq_-92" source="4fPn2dJ94Awd5dNHBFq_-101" target="4fPn2dJ94Awd5dNHBFq_-108" edge="1">
          <mxGeometry relative="1" as="geometry" />
        </mxCell>
        <mxCell id="4fPn2dJ94Awd5dNHBFq_-124" value="Yes" style="edgeLabel;html=1;align=center;verticalAlign=middle;resizable=0;points=[];fontSize=11;fontFamily=Helvetica;fontColor=default;" parent="4fPn2dJ94Awd5dNHBFq_-100" vertex="1" connectable="0">
          <mxGeometry x="-0.6733" relative="1" as="geometry">
            <mxPoint as="offset" />
          </mxGeometry>
        </mxCell>
        <mxCell id="4fPn2dJ94Awd5dNHBFq_-109" value="speak help message3" style="rounded=1;whiteSpace=wrap;html=1;fontFamily=Helvetica;fontSize=11;fillColor=#dae8fc;strokeColor=#6c8ebf;" parent="4fPn2dJ94Awd5dNHBFq_-92" vertex="1">
          <mxGeometry x="249.25" y="435" width="56" height="30" as="geometry" />
        </mxCell>
        <mxCell id="4fPn2dJ94Awd5dNHBFq_-97" value="Yes" style="edgeStyle=orthogonalEdgeStyle;shape=connector;rounded=0;orthogonalLoop=1;jettySize=auto;html=1;shadow=0;labelBackgroundColor=default;strokeColor=default;strokeWidth=1;fontFamily=Helvetica;fontSize=11;fontColor=default;endArrow=block;endFill=0;endSize=8;" parent="4fPn2dJ94Awd5dNHBFq_-92" source="4fPn2dJ94Awd5dNHBFq_-98" target="4fPn2dJ94Awd5dNHBFq_-109" edge="1">
          <mxGeometry x="0.2011" y="4" relative="1" as="geometry">
            <mxPoint as="offset" />
          </mxGeometry>
        </mxCell>
        <mxCell id="4fPn2dJ94Awd5dNHBFq_-129" value="Help for memory Buttons" style="text;html=1;align=center;verticalAlign=middle;resizable=1;points=[];autosize=1;strokeColor=none;fillColor=none;fontSize=11;fontFamily=Helvetica;fontColor=default;movable=1;rotatable=1;deletable=1;editable=1;locked=0;connectable=1;" parent="4fPn2dJ94Awd5dNHBFq_-92" vertex="1">
          <mxGeometry x="125.25" width="150" height="30" as="geometry" />
        </mxCell>
        <mxCell id="4fPn2dJ94Awd5dNHBFq_-117" style="edgeStyle=orthogonalEdgeStyle;shape=connector;rounded=0;orthogonalLoop=1;jettySize=auto;html=1;entryX=0;entryY=0.25;entryDx=0;entryDy=0;entryPerimeter=0;shadow=0;labelBackgroundColor=default;strokeColor=default;strokeWidth=1;fontFamily=Helvetica;fontSize=11;fontColor=default;endArrow=block;endFill=0;endSize=8;exitX=1;exitY=0.5;exitDx=0;exitDy=0;" parent="WIyWlLk6GJQsqaUBKTNV-1" source="4fPn2dJ94Awd5dNHBFq_-127" target="4fPn2dJ94Awd5dNHBFq_-115" edge="1">
          <mxGeometry relative="1" as="geometry">
            <Array as="points">
              <mxPoint x="798" y="1085" />
              <mxPoint x="798" y="75" />
              <mxPoint x="350" y="75" />
            </Array>
          </mxGeometry>
        </mxCell>
        <mxCell id="4fPn2dJ94Awd5dNHBFq_-128" style="edgeStyle=orthogonalEdgeStyle;shape=connector;rounded=0;orthogonalLoop=1;jettySize=auto;html=1;exitX=0.5;exitY=1;exitDx=0;exitDy=0;entryX=0.5;entryY=0;entryDx=0;entryDy=0;shadow=0;labelBackgroundColor=default;strokeColor=default;strokeWidth=1;fontFamily=Helvetica;fontSize=11;fontColor=default;endArrow=block;endFill=0;endSize=8;" parent="WIyWlLk6GJQsqaUBKTNV-1" source="4fPn2dJ94Awd5dNHBFq_-112" target="4fPn2dJ94Awd5dNHBFq_-127" edge="1">
          <mxGeometry relative="1" as="geometry" />
        </mxCell>
        <mxCell id="4fPn2dJ94Awd5dNHBFq_-112" value="wait 30s" style="rounded=1;whiteSpace=wrap;html=1;fillColor=#dae8fc;strokeColor=#6c8ebf;" parent="WIyWlLk6GJQsqaUBKTNV-1" vertex="1">
          <mxGeometry x="573" y="980" width="70" height="30" as="geometry" />
        </mxCell>
        <mxCell id="4fPn2dJ94Awd5dNHBFq_-116" style="edgeStyle=orthogonalEdgeStyle;shape=connector;rounded=0;orthogonalLoop=1;jettySize=auto;html=1;exitX=1;exitY=0.5;exitDx=0;exitDy=0;exitPerimeter=0;entryX=0.5;entryY=0;entryDx=0;entryDy=0;shadow=0;labelBackgroundColor=default;strokeColor=default;strokeWidth=1;fontFamily=Helvetica;fontSize=11;fontColor=default;endArrow=block;endFill=0;endSize=8;" parent="WIyWlLk6GJQsqaUBKTNV-1" source="4fPn2dJ94Awd5dNHBFq_-115" target="4fPn2dJ94Awd5dNHBFq_-3" edge="1">
          <mxGeometry relative="1" as="geometry" />
        </mxCell>
        <mxCell id="4fPn2dJ94Awd5dNHBFq_-115" value="AND" style="shape=or;whiteSpace=wrap;html=1;fontFamily=Helvetica;fontSize=11;fontColor=default;rotation=90;" parent="WIyWlLk6GJQsqaUBKTNV-1" vertex="1">
          <mxGeometry x="323" y="85" width="30" height="50" as="geometry" />
        </mxCell>
        <mxCell id="4fPn2dJ94Awd5dNHBFq_-127" value="Capsense detection available" style="rounded=1;whiteSpace=wrap;html=1;fontFamily=Helvetica;fontSize=11;fillColor=#dae8fc;strokeColor=#6c8ebf;" parent="WIyWlLk6GJQsqaUBKTNV-1" vertex="1">
          <mxGeometry x="564.5" y="1060" width="87" height="50" as="geometry" />
        </mxCell>
        <mxCell id="DfglNO9iFc2wlAfMeSWZ-0" value="" style="endArrow=classic;html=1;rounded=0;fontColor=#B5B5B5;" edge="1" parent="WIyWlLk6GJQsqaUBKTNV-1">
          <mxGeometry width="50" height="50" relative="1" as="geometry">
            <mxPoint x="648" y="610" as="sourcePoint" />
            <mxPoint x="698" y="560" as="targetPoint" />
          </mxGeometry>
        </mxCell>
        <mxCell id="DfglNO9iFc2wlAfMeSWZ-1" value="" style="endArrow=classic;html=1;rounded=0;fontColor=#B5B5B5;" edge="1" parent="WIyWlLk6GJQsqaUBKTNV-1">
          <mxGeometry width="50" height="50" relative="1" as="geometry">
            <mxPoint x="648" y="610" as="sourcePoint" />
            <mxPoint x="698" y="560" as="targetPoint" />
          </mxGeometry>
        </mxCell>
        <mxCell id="DfglNO9iFc2wlAfMeSWZ-2" value="" style="endArrow=classic;html=1;rounded=0;fontColor=#B5B5B5;" edge="1" parent="WIyWlLk6GJQsqaUBKTNV-1">
          <mxGeometry width="50" height="50" relative="1" as="geometry">
            <mxPoint x="648" y="610" as="sourcePoint" />
            <mxPoint x="698" y="560" as="targetPoint" />
          </mxGeometry>
        </mxCell>
        <mxCell id="DfglNO9iFc2wlAfMeSWZ-4" value="" style="endArrow=classic;html=1;rounded=0;fontColor=#B5B5B5;" edge="1" parent="WIyWlLk6GJQsqaUBKTNV-1">
          <mxGeometry width="50" height="50" relative="1" as="geometry">
            <mxPoint x="648" y="610" as="sourcePoint" />
            <mxPoint x="698" y="560" as="targetPoint" />
          </mxGeometry>
        </mxCell>
        <mxCell id="DfglNO9iFc2wlAfMeSWZ-7" value="&lt;h1 style=&quot;font-size: 24px;&quot;&gt;&lt;font style=&quot;font-size: 24px;&quot;&gt;&lt;b style=&quot;font-size: 24px;&quot;&gt;Speak2Me - Voice assitant for telephones&lt;/b&gt;&lt;/font&gt;&lt;/h1&gt;" style="text;html=1;align=center;verticalAlign=middle;resizable=0;points=[];autosize=1;strokeColor=none;fillColor=none;fontColor=#000000;fontSize=24;fontFamily=Tahoma;" vertex="1" parent="WIyWlLk6GJQsqaUBKTNV-1">
          <mxGeometry x="278" width="520" height="70" as="geometry" />
        </mxCell>
      </root>
    </mxGraphModel>
  </diagram>
</mxfile>
